<svg width="300" height="300" viewBox="0 0 300 300" fill="none" xmlns="http://www.w3.org/2000/svg">
<path d="M0 150C0 67.1573 67.1573 0 150 0C232.843 0 300 67.1573 300 150C300 232.843 232.843 300 150 300C67.1573 300 0 232.843 0 150Z" fill="#C2DCE2"/>
<path d="M104.87 100.974C105.54 100.455 106.363 100.174 107.21 100.174C108.143 100.174 109.043 100.515 109.742 101.134L112.503 103.58C113.151 104.154 113.729 104.803 114.225 105.513L121.766 116.306C122.205 116.933 122.766 117.465 123.417 117.869C124.96 118.825 126.868 118.981 128.546 118.288L136.204 115.122L142.909 111.923C144.389 111.217 146.007 110.851 147.646 110.851H154.617C155.195 110.851 155.773 110.896 156.344 110.987L163.16 112.071C164.009 112.206 164.84 112.44 165.635 112.769L167.581 113.573C171.888 115.354 176.851 114.227 179.966 110.759L182.917 107.474C183.451 106.88 184.049 106.345 184.699 105.88L191.717 100.858C192.339 100.413 193.084 100.174 193.849 100.174C194.434 100.174 195.011 100.314 195.53 100.583L196.617 101.144C198.089 101.905 199.313 103.07 200.145 104.503L206.147 114.844C206.801 115.969 207.648 116.97 208.651 117.799L209.668 118.64C210.273 119.14 210.93 119.574 211.627 119.935L214.486 121.412C215.546 121.96 216.511 122.677 217.341 123.535L223.663 130.069L230.549 138.611L232.405 141.681C233.444 143.398 233.992 145.366 233.992 147.372V147.943C233.992 149.76 233.542 151.549 232.682 153.15L224.892 167.643C224.084 169.147 222.936 170.442 221.54 171.426L209.728 179.75C208.921 180.319 208.042 180.776 207.113 181.11L194.478 185.653C193.284 186.082 192.025 186.302 190.756 186.302H182.78C182.032 186.302 181.286 186.378 180.553 186.529L165.54 189.633C164.808 189.784 164.062 189.861 163.313 189.861H153.42L147.355 190.487C146.808 190.544 146.266 190.641 145.734 190.779L139.624 192.358C138.725 192.59 137.8 192.708 136.872 192.708H111.412L95.4122 191.012C92.9245 190.748 92.564 187.274 94.9445 186.505C95.3555 186.372 95.7212 186.127 96.0003 185.797L96.2928 185.452C98.1723 183.231 97.0493 179.809 94.2197 179.134L84.791 176.885C83.2778 176.524 81.8714 175.811 80.6868 174.802L72.1067 167.499C71.229 166.752 70.4741 165.871 69.8697 164.89L66.8759 160.027C66.2699 159.043 65.8229 157.969 65.5512 156.846L64.8923 154.122C64.6875 153.275 64.584 152.407 64.584 151.536V150.209C64.584 148.663 64.9097 147.135 65.5399 145.724L68.1609 139.854C68.5295 139.028 68.9984 138.252 69.5571 137.541L76.8014 128.325C77.3771 127.593 78.0434 126.936 78.7845 126.372L89.5427 118.179C90.3456 117.567 91.0605 116.848 91.6674 116.042L99.5081 105.622C100.096 104.84 100.785 104.141 101.558 103.542L104.87 100.974Z" fill="white"/>
<path fill-rule="evenodd" clip-rule="evenodd" d="M98.0073 112.718C96.2275 115.253 94.3797 117.885 92.5312 119.967C92.2942 120.234 92.0467 120.5 91.7985 120.757C91.7288 120.829 91.6534 120.896 91.5722 120.959C91.1918 121.251 90.7665 121.574 90.3032 121.926L90.3024 121.927C86.0212 125.177 78.4979 130.888 73.1562 137.962C70.2072 141.868 68.0511 146.03 67.4062 150.262C66.7748 154.407 67.5623 158.792 70.8093 163.339C77.6378 172.901 85.3536 176.787 91.3544 178.369C94.3699 179.163 96.9754 179.382 98.8497 179.426C99.7709 179.448 100.514 179.428 101.069 179.413L101.114 179.412C101.372 179.405 101.637 179.398 101.842 179.402C101.941 179.404 102.101 179.409 102.269 179.433C102.35 179.445 102.504 179.472 102.684 179.535C102.803 179.577 103.261 179.741 103.636 180.224C104.024 180.723 104.254 181.349 104.248 182.034C104.242 182.671 104.034 183.193 103.831 183.558C103.448 184.245 102.862 184.765 102.427 185.105C101.506 185.825 100.387 186.396 99.8818 186.626C98.6955 187.167 97.5398 187.812 96.2813 188.516C95.5608 188.918 94.8065 189.339 93.9936 189.771C93.7627 189.893 93.8292 190.243 94.0892 190.269C98.7218 190.717 102.66 190.768 107.193 190.78C107.684 190.781 108.181 190.782 108.687 190.782L108.713 190.782C113.366 190.789 118.726 190.798 125.988 191.17C133.799 191.571 139.858 190.777 147.801 189.635L149.048 189.456C156.778 188.341 166.286 186.97 180.538 186.131C195.029 185.277 206.734 179.56 215.024 172.755C219.171 169.351 222.446 165.689 224.778 162.256C227.131 158.792 228.446 155.68 228.826 153.379L228.829 153.362C228.862 153.16 228.925 152.964 229.014 152.78L229.015 152.779L229.017 152.774L229.028 152.75C229.043 152.717 229.069 152.655 229.104 152.567C229.173 152.392 229.275 152.112 229.384 151.739C229.603 150.992 229.849 149.88 229.924 148.488C230.073 145.732 229.563 141.788 226.708 137.287C223.818 132.733 219.305 129.034 215.392 126.436C213.454 125.15 211.703 124.16 210.44 123.494C209.81 123.161 209.303 122.91 208.957 122.744C208.784 122.661 208.652 122.599 208.565 122.559C208.522 122.539 208.49 122.524 208.47 122.515L208.448 122.505L208.445 122.504C208.05 122.329 207.734 122.035 207.52 121.679C207.473 121.6 207.418 121.525 207.356 121.455C206.105 120.046 204.892 118.006 203.739 115.938C203.313 115.174 202.894 114.403 202.474 113.631C201.707 112.221 200.939 110.809 200.127 109.431C198.877 107.311 197.649 105.497 196.42 104.242C195.175 102.97 194.194 102.542 193.412 102.572C192.421 102.611 190.842 103.296 188.803 104.708C186.847 106.062 184.757 107.877 182.814 109.73C180.879 111.575 179.132 113.418 177.867 114.804C177.235 115.495 176.725 116.07 176.375 116.47C176.2 116.671 176.065 116.827 175.974 116.932L175.873 117.051L175.848 117.08L175.842 117.087L175.841 117.088L175.82 117.113C175.226 117.815 174.221 118.005 173.412 117.566L173.411 117.565L173.41 117.565L173.396 117.557L173.327 117.521C173.263 117.487 173.166 117.437 173.035 117.371C172.775 117.239 172.386 117.048 171.885 116.817C170.884 116.354 169.442 115.734 167.7 115.113C164.196 113.863 159.577 112.648 154.927 112.648C147.114 112.648 140.043 115.381 132.375 118.344C130.752 118.971 129.103 119.609 127.414 120.233C126.662 120.511 125.767 120.659 124.965 120.641C124.441 120.629 123.921 120.403 123.534 119.967C121.102 117.228 119.031 113.857 117.239 110.857C117.055 110.549 116.875 110.246 116.698 109.948C115.086 107.241 113.752 105.001 112.494 103.559C110.841 101.664 109.547 101.437 108.447 101.697C107.097 102.017 105.514 103.19 103.668 105.241C101.862 107.248 100.056 109.801 98.1829 112.468L98.0073 112.718ZM210.632 118.848C210.547 118.807 210.477 118.743 210.421 118.668C210.384 118.619 210.346 118.571 210.304 118.525C209.4 117.506 208.39 115.857 207.224 113.764C206.844 113.083 206.447 112.353 206.037 111.6L206.036 111.597L206.035 111.595C205.243 110.14 204.405 108.601 203.559 107.166C202.266 104.973 200.826 102.793 199.229 101.163C197.65 99.5498 195.649 98.2023 193.263 98.2953C191.086 98.3802 188.705 99.6604 186.587 101.127C184.386 102.651 182.121 104.628 180.105 106.551C178.081 108.481 176.265 110.398 174.958 111.829C174.644 112.173 174.359 112.489 174.107 112.771C173.956 112.94 173.711 112.99 173.505 112.895C172.416 112.392 170.864 111.724 168.992 111.057C165.271 109.73 160.186 108.368 154.927 108.368C146.331 108.368 138.462 111.42 130.776 114.4C129.205 115.009 127.641 115.615 126.08 116.192C125.941 116.243 125.78 116.214 125.687 116.098C123.874 113.866 122.235 111.209 120.659 108.571C120.471 108.255 120.282 107.938 120.094 107.621C118.546 105.017 116.996 102.409 115.467 100.656C113.075 97.9146 110.387 96.8522 107.563 97.5204C104.989 98.1298 102.706 100.104 100.738 102.29C98.7311 104.52 96.7767 107.294 94.9358 109.915L94.8384 110.054C92.9951 112.679 91.2684 115.138 89.5828 117.036C89.5145 117.113 89.4526 117.194 89.3971 117.278C89.3419 117.362 89.2728 117.436 89.1933 117.497C88.8293 117.777 88.4137 118.092 87.954 118.44C83.7102 121.657 75.7148 127.717 69.9956 135.291C66.8152 139.503 64.2106 144.342 63.4124 149.581C62.6008 154.909 63.6879 160.466 67.5816 165.919C75.0348 176.356 83.5917 180.733 90.3765 182.522C91.6117 182.847 92.7851 183.086 93.879 183.261C94.6407 183.383 94.8559 184.471 94.1821 184.846C93.4945 185.229 92.8208 185.605 92.1806 185.944C90.1558 187.018 88.2332 187.875 86.3257 188.208C85.3354 188.381 84.2815 188.561 83.3824 188.64C83.3625 188.641 83.0484 188.66 82.7057 188.823C82.5838 188.881 81.8957 189.208 81.6143 190.099C81.2708 191.185 81.8355 191.986 82.0385 192.221C82.2585 192.477 82.484 192.611 82.5526 192.652C82.6508 192.71 82.7341 192.748 82.7806 192.768C82.8747 192.808 82.9539 192.834 82.9914 192.846C83.1286 192.889 83.2815 192.922 83.3711 192.941C83.5949 192.988 83.9186 193.049 84.2922 193.115C85.0497 193.25 86.1017 193.426 87.1857 193.602C89.3227 193.949 91.7069 194.317 92.1961 194.372C97.7006 194.987 102.151 195.047 107.183 195.06C107.675 195.061 108.172 195.062 108.676 195.062L108.707 195.062C113.355 195.07 118.629 195.078 125.793 195.445C134.005 195.866 140.384 195.02 148.345 193.876L149.588 193.697C157.297 192.586 166.673 191.234 180.763 190.404C196.155 189.497 208.632 183.419 217.504 176.137C221.937 172.498 225.489 168.543 228.063 164.754C230.487 161.186 232.116 157.658 232.722 154.602C232.748 154.471 232.787 154.342 232.836 154.218C232.951 153.927 233.098 153.52 233.248 153.006C233.549 151.98 233.866 150.523 233.963 148.732C234.158 145.121 233.452 140.238 230.066 134.902C226.714 129.619 221.648 125.536 217.541 122.811C215.47 121.436 213.6 120.379 212.246 119.664C211.568 119.306 211.017 119.033 210.632 118.848Z" fill="#C2DCE2"/>
<path fill-rule="evenodd" clip-rule="evenodd" d="M121.247 140.933C122.184 142.945 121.312 145.334 119.301 146.271C118.451 146.667 117.281 147.139 115.883 147.152C114.412 147.167 113.212 146.677 112.27 146.176C110.311 145.133 109.569 142.7 110.611 140.742C111.62 138.847 113.93 138.09 115.853 138.987C115.871 138.996 115.891 138.996 115.909 138.988C117.92 138.051 120.31 138.922 121.247 140.933Z" fill="#C2DCE2"/>
<path fill-rule="evenodd" clip-rule="evenodd" d="M154.325 150.494C155.262 152.505 154.391 154.895 152.38 155.832C151.529 156.228 150.36 156.7 148.961 156.713C147.491 156.728 146.29 156.238 145.348 155.736C143.39 154.694 142.647 152.261 143.69 150.303C144.698 148.408 147.009 147.651 148.931 148.548C148.949 148.557 148.97 148.557 148.988 148.549C150.999 147.612 153.389 148.483 154.325 150.494Z" fill="#C2DCE2"/>
<path fill-rule="evenodd" clip-rule="evenodd" d="M190.251 140.933C191.188 142.945 190.317 145.334 188.306 146.271C187.455 146.667 186.286 147.139 184.888 147.152C183.417 147.167 182.216 146.677 181.274 146.176C179.316 145.133 178.573 142.7 179.616 140.742C180.624 138.847 182.935 138.09 184.858 138.987C184.875 138.996 184.896 138.996 184.914 138.988C186.925 138.051 189.315 138.922 190.251 140.933Z" fill="#C2DCE2"/>
<path d="M118.064 82.4187C117.623 82.5309 117.278 82.2536 117.227 81.8012C117.209 81.6438 117.2 81.4851 117.2 81.3252C117.2 80.4141 117.457 79.7213 117.969 79.2467C118.018 79.2017 118.068 79.1587 118.119 79.1177C118.907 78.4879 119.734 77.579 119.734 76.5704C119.734 74.4824 120.275 72.6887 121.357 71.1892C122.439 69.6706 123.967 68.9114 125.941 68.9114C127.023 68.9114 127.868 69.2341 128.475 69.8794C129.102 70.5248 129.415 71.2746 129.415 72.1287C129.415 72.9829 129.121 73.7137 128.532 74.3211C127.944 74.9095 127.175 75.2037 126.226 75.2037C125.371 75.2037 124.6 75.0188 123.915 74.6488C123.779 74.5755 123.611 74.5838 123.49 74.6792C123.371 74.7724 123.321 74.9285 123.364 75.0732L123.893 76.8736C124.121 77.6491 124.885 78.1516 125.67 77.9587C125.721 77.9461 125.772 77.9331 125.824 77.9198C126.645 77.7083 127.507 78.143 127.507 78.9905C127.507 79.5789 127.327 80.1389 126.966 80.6703C126.338 81.6121 125.301 82.3741 125.073 83.4827C124.114 88.1366 123.635 91.5174 123.635 93.6251C123.635 95.0481 123.365 97.0734 121.991 97.445C121.581 97.5558 121.19 97.6112 120.816 97.6112C118.69 97.6112 117.627 96.3015 117.627 93.682C117.627 92.1604 118.139 88.7093 119.161 83.3285C119.27 82.7533 118.631 82.2744 118.064 82.4187Z" fill="white"/>
<path d="M143.441 76.7127C144.504 76.7127 145.415 77.1398 146.175 77.994C146.953 78.8481 147.342 80.0914 147.342 81.7238C147.342 83.3372 147.057 84.8367 146.488 86.2224C145.918 87.589 145.169 88.7089 144.238 89.5821C143.308 90.4552 142.255 91.1385 141.078 91.6321C139.901 92.1066 138.696 92.3439 137.462 92.3439C134.976 92.3439 133.011 91.6605 131.568 90.2939C130.126 88.9272 129.405 87.1145 129.405 84.8557C129.405 81.7997 130.382 79.3227 132.337 77.4245C134.311 75.5074 136.817 74.5489 139.854 74.5489C140.327 74.5489 140.801 74.5853 141.275 74.6583C141.667 74.7187 141.988 75.0058 142.073 75.3939C142.095 75.4943 142.115 75.5966 142.133 75.7007C142.235 76.2972 142.836 76.7127 143.441 76.7127ZM139.939 80.6703C139.939 80.1389 140.063 79.5409 140.309 78.8766C140.479 78.453 140.015 77.6948 139.59 77.8621C138.126 78.439 137.056 79.2612 136.38 80.3287C135.564 81.6194 135.156 82.9481 135.156 84.3148C135.156 85.6814 135.431 86.7823 135.982 87.6175C136.551 88.4337 137.272 88.8418 138.145 88.8418C138.431 88.8418 138.705 88.8143 138.966 88.7593C141.957 88.1287 139.939 83.7275 139.939 80.6703Z" fill="white"/>
<path d="M163.794 76.7127C164.857 76.7127 165.768 77.1398 166.528 77.994C167.306 78.8481 167.695 80.0914 167.695 81.7238C167.695 83.3372 167.41 84.8367 166.841 86.2224C166.271 87.589 165.522 88.7089 164.592 89.5821C163.661 90.4552 162.608 91.1385 161.431 91.6321C160.254 92.1066 159.049 92.3439 157.815 92.3439C155.329 92.3439 153.364 91.6605 151.921 90.2939C150.479 88.9272 149.758 87.1145 149.758 84.8557C149.758 81.7997 150.735 79.3227 152.69 77.4245C154.664 75.5074 157.17 74.5489 160.207 74.5489C160.68 74.5489 161.154 74.5853 161.628 74.6583C162.02 74.7187 162.341 75.0058 162.426 75.3939C162.448 75.4943 162.468 75.5966 162.486 75.7007C162.588 76.2972 163.189 76.7127 163.794 76.7127ZM160.292 80.6703C160.292 80.1389 160.416 79.5409 160.662 78.8766C160.832 78.453 160.368 77.6948 159.943 77.8621C158.479 78.439 157.409 79.2612 156.733 80.3287C155.917 81.6194 155.509 82.9481 155.509 84.3148C155.509 85.6814 155.784 86.7823 156.335 87.6175C156.904 88.4337 157.625 88.8418 158.499 88.8418C158.784 88.8418 159.058 88.8143 159.319 88.7593C162.31 88.1287 160.292 83.7275 160.292 80.6703Z" fill="white"/>
<path d="M181.133 89.6894C181.129 89.6062 181.082 89.5301 181.008 89.4929C180.913 89.4455 180.798 89.4728 180.733 89.556C179.276 91.4146 177.548 92.3439 175.549 92.3439C174.03 92.3439 172.74 91.7459 171.677 90.5501C170.633 89.3353 170.111 87.7029 170.111 85.6529C170.111 83.1094 171.003 80.7937 172.787 78.7058C173.66 77.6808 174.827 76.8551 176.289 76.2287C177.751 75.5833 179.383 75.2607 181.186 75.2607C181.375 75.2607 181.644 75.2722 181.994 75.2953C182.556 75.3324 183.044 74.9804 183.155 74.4281C183.212 74.1423 183.169 73.786 183.002 73.5472L182.8 73.2587C182.192 72.3896 182.451 71.1754 183.405 70.7112C184.974 69.9479 186.265 69.5663 187.279 69.5663C188.057 69.5663 188.608 69.7276 188.931 70.0503C189.253 70.354 189.415 70.9424 189.415 71.8155C189.415 72.6697 188.988 75.0993 188.133 79.1044C187.298 83.1094 186.881 85.9566 186.881 87.646C186.881 89.5124 186.484 92.2587 184.619 92.3398C184.557 92.3425 184.494 92.3439 184.432 92.3439C183.293 92.3439 182.458 92.0591 181.927 91.4897C181.429 90.9394 181.165 90.3393 181.133 89.6894ZM175.463 84.571C175.463 85.6529 175.739 86.5071 176.289 87.1335C176.858 87.7599 177.561 88.0731 178.396 88.0731C178.938 88.0731 179.456 87.9444 179.951 87.687C181.005 87.1384 181.409 85.8977 181.537 84.7164C181.582 84.3043 181.629 83.8997 181.678 83.5027C182.042 80.5399 179.435 77.6899 177.399 79.8731C176.109 81.2777 175.463 82.8437 175.463 84.571Z" fill="white"/>
<path d="M117.115 214.403C117.115 211.366 118.159 208.889 120.247 206.972C122.335 205.055 124.964 204.097 128.134 204.097C129.766 204.097 131.057 204.41 132.006 205.036C132.955 205.644 133.429 206.412 133.429 207.342C133.429 208.272 133.107 208.984 132.461 209.478C131.835 209.971 131.142 210.218 130.383 210.218C129.643 210.218 128.959 210.019 128.333 209.62C127.272 208.924 125.922 208.244 125.044 209.16C124.676 209.544 124.348 209.992 124.062 210.503C123.379 211.755 123.037 213.008 123.037 214.261C123.037 215.514 123.284 216.529 123.777 217.308C124.271 218.086 124.916 218.475 125.713 218.475C126.511 218.475 127.156 218.209 127.649 217.678C128.626 216.665 129.59 215.207 130.944 215.589C132.031 215.895 132.575 216.459 132.575 217.279C132.575 218.399 131.873 219.452 130.468 220.439C129.064 221.408 127.213 221.892 124.916 221.892C122.619 221.892 120.74 221.208 119.279 219.842C117.836 218.456 117.115 216.643 117.115 214.403Z" fill="white"/>
<path d="M151.273 204.097C153.569 204.097 154.718 205.245 154.718 207.542C154.718 208.529 154.433 210.199 153.864 212.553C153.313 214.906 153.038 216.681 153.038 217.877C153.038 219.433 152.801 221.478 151.279 221.804C151.005 221.862 150.728 221.892 150.447 221.892C148.264 221.892 147.173 220.715 147.173 218.361C147.173 217.488 147.457 216.007 148.027 213.919C148.596 211.831 148.881 210.474 148.881 209.848C148.881 208.994 148.558 208.567 147.913 208.567C147.381 208.567 146.774 208.804 146.091 209.278C145.407 209.734 144.743 210.36 144.098 211.158C143.471 211.936 142.94 212.932 142.503 214.147C142.067 215.343 141.848 216.567 141.848 217.82C141.848 219.408 141.593 221.505 140.035 221.815C139.779 221.866 139.52 221.892 139.257 221.892C137.075 221.892 135.983 220.715 135.983 218.361C135.983 216.956 136.363 214.109 137.122 209.819C137.586 207.104 137.908 205.247 138.087 204.248C138.176 203.751 138.068 203.235 137.778 202.821C137.164 201.944 137.426 200.718 138.389 200.251C139.95 199.493 141.236 199.114 142.247 199.114C143.025 199.114 143.576 199.275 143.898 199.598C144.221 199.902 144.382 200.414 144.382 201.135C144.382 202.502 144.249 203.992 143.984 205.606C143.734 207.12 143.502 208.258 143.286 209.02C143.262 209.104 143.3 209.193 143.378 209.232C143.463 209.274 143.566 209.243 143.614 209.162C145.632 205.785 148.185 204.097 151.273 204.097Z" fill="white"/>
<path d="M168.169 217.792C168.169 217.722 168.13 217.658 168.067 217.627C167.969 217.578 167.851 217.625 167.81 217.726C167.302 219.002 166.586 220.011 165.663 220.753C164.714 221.512 163.651 221.892 162.475 221.892C160.861 221.892 159.57 221.284 158.602 220.069C157.634 218.855 157.15 217.232 157.15 215.201C157.15 212.05 158.204 209.411 160.311 207.285C162.437 205.159 165.075 204.097 168.226 204.097C168.895 204.097 169.52 204.148 170.101 204.25C170.33 204.29 170.516 204.512 170.557 204.741C170.637 205.192 171.161 205.416 171.581 205.235C172.243 204.951 172.918 204.808 173.607 204.808C174.993 204.808 175.686 205.558 175.686 207.058C175.686 207.589 175.382 209.193 174.774 211.869C174.186 214.546 173.892 216.529 173.892 217.82C173.892 219.348 173.727 221.54 172.225 221.819C171.967 221.868 171.706 221.892 171.443 221.892C170.304 221.892 169.469 221.55 168.938 220.867C168.439 220.201 168.183 219.176 168.169 217.792ZM162.503 213.805C162.503 214.736 162.693 215.457 163.072 215.969C163.471 216.463 164.031 216.71 164.752 216.71C165.474 216.71 166.185 216.444 166.888 215.912C167.373 215.545 167.805 215.082 168.182 214.524C168.526 214.013 168.678 213.404 168.748 212.793C168.761 212.679 168.775 212.564 168.789 212.448C169.144 209.581 166.792 207.006 164.695 208.994C163.234 210.379 162.503 211.983 162.503 213.805Z" fill="white"/>
<path d="M179.819 210.611C179.307 210.75 178.763 210.457 178.71 209.929C178.693 209.754 178.684 209.585 178.684 209.421C178.684 208.491 178.96 207.788 179.51 207.314C179.625 207.215 179.747 207.126 179.877 207.047C180.749 206.518 181.668 205.868 181.409 204.882C181.189 204.043 181.367 203.007 182.105 202.551C182.565 202.267 183 202.032 183.411 201.847C184.189 201.487 185.005 201.306 185.859 201.306C186.714 201.306 187.302 201.468 187.625 201.79C187.966 202.094 188.137 202.569 188.137 203.214C188.137 203.615 188.086 204.157 187.983 204.837C187.88 205.52 188.442 206.125 189.117 205.975C189.633 205.861 190.175 206.144 190.22 206.671C190.236 206.862 190.244 207.067 190.244 207.285C190.244 207.912 189.997 208.5 189.504 209.051C189.029 209.582 188.327 209.848 187.397 209.848C187.147 209.848 186.931 210.022 186.879 210.266C186.256 213.157 185.945 215.4 185.945 216.994C185.945 219.026 185.534 221.863 183.503 221.891C183.482 221.891 183.46 221.892 183.439 221.892C182.243 221.892 181.38 221.54 180.848 220.838C180.336 220.117 180.08 219.006 180.08 217.507C180.08 216.699 180.341 214.728 180.863 211.594C180.965 210.979 180.42 210.448 179.819 210.611Z" fill="white"/>
</svg>
