<svg width="302" height="302" viewBox="0 0 302 302" fill="none" xmlns="http://www.w3.org/2000/svg">
<path d="M0.5 151C0.5 234.119 67.8811 301.5 151 301.5C234.119 301.5 301.5 234.119 301.5 151C301.5 67.8811 234.119 0.5 151 0.5C67.8811 0.5 0.5 67.8811 0.5 151Z" fill="#FFABAB" stroke="#EFD7B2"/>
<path d="M105.87 101.974C106.54 101.455 107.363 101.174 108.21 101.174V101.174C109.143 101.174 110.043 101.515 110.742 102.134L113.503 104.58C114.151 105.154 114.729 105.803 115.225 106.513L122.766 117.306C123.205 117.933 123.766 118.465 124.417 118.869V118.869C125.96 119.825 127.868 119.981 129.546 119.288L137.204 116.122L143.909 112.923C145.389 112.217 147.007 111.851 148.646 111.851H155.617C156.195 111.851 156.773 111.896 157.344 111.987L164.16 113.071C165.009 113.206 165.84 113.44 166.635 113.769L168.581 114.573C172.888 116.355 177.851 115.227 180.966 111.759L183.917 108.475C184.451 107.88 185.049 107.345 185.699 106.88L192.717 101.858C193.339 101.413 194.084 101.174 194.849 101.174V101.174C195.434 101.174 196.01 101.314 196.53 101.583L197.617 102.144C199.089 102.905 200.313 104.071 201.145 105.503L207.147 115.844C207.801 116.969 208.648 117.97 209.651 118.799L210.668 119.64C211.273 120.14 211.93 120.574 212.627 120.935L215.486 122.412C216.546 122.96 217.511 123.677 218.341 124.535L224.663 131.069L231.549 139.611L233.405 142.681C234.444 144.398 234.992 146.366 234.992 148.373V148.943C234.992 150.76 234.542 152.55 233.682 154.151L225.892 168.643C225.084 170.147 223.936 171.442 222.54 172.426L210.728 180.751C209.921 181.319 209.042 181.776 208.113 182.11L195.477 186.653C194.284 187.082 193.025 187.302 191.756 187.302H183.78C183.032 187.302 182.286 187.378 181.553 187.529L166.54 190.633C165.808 190.784 165.062 190.861 164.313 190.861H154.42L148.355 191.488C147.808 191.544 147.266 191.641 146.734 191.779L140.624 193.358C139.725 193.59 138.8 193.708 137.872 193.708H112.412L96.4122 192.012C93.9245 191.748 93.564 188.274 95.9445 187.505V187.505C96.3555 187.372 96.7212 187.127 97.0003 186.797L97.2928 186.452C99.1723 184.232 98.0493 180.809 95.2197 180.135L85.791 177.886C84.2778 177.525 82.8714 176.811 81.6868 175.802L73.1067 168.499C72.2289 167.752 71.474 166.871 70.8697 165.89L67.8758 161.027C67.2699 160.043 66.8229 158.969 66.5512 157.846L65.8923 155.122C65.6875 154.275 65.584 153.407 65.584 152.536V151.209C65.584 149.663 65.9097 148.135 66.5398 146.724L69.1609 140.854C69.5295 140.028 69.9984 139.252 70.5571 138.541L77.8014 129.325C78.377 128.593 79.0434 127.937 79.7845 127.372L90.5427 119.179C91.3456 118.567 92.0605 117.848 92.6673 117.042L100.508 106.622C101.096 105.84 101.785 105.141 102.558 104.542L105.87 101.974Z" fill="white"/>
<path fill-rule="evenodd" clip-rule="evenodd" d="M99.0074 113.718L99.0074 113.718C97.2275 116.253 95.3797 118.885 93.5312 120.967V120.967C93.2942 121.234 93.0468 121.5 92.7986 121.757C92.7289 121.829 92.6534 121.896 92.5722 121.959C92.1918 122.251 91.7665 122.574 91.3032 122.926L91.3024 122.927C87.0212 126.177 79.498 131.888 74.1562 138.962C71.2072 142.868 69.0511 147.03 68.4063 151.263C67.7749 155.407 68.5624 159.792 71.8094 164.339C78.6378 173.901 86.3537 177.787 92.3544 179.369C95.3699 180.163 97.9754 180.382 99.8497 180.426C100.771 180.448 101.514 180.428 102.069 180.413L102.1 180.412L102.114 180.412C102.372 180.405 102.637 180.398 102.843 180.402C102.941 180.404 103.101 180.409 103.269 180.434C103.35 180.445 103.505 180.472 103.684 180.535C103.803 180.577 104.261 180.741 104.636 181.224C105.024 181.723 105.254 182.349 105.248 183.034C105.242 183.671 105.034 184.193 104.831 184.558C104.448 185.245 103.862 185.765 103.427 186.105C102.506 186.825 101.387 187.396 100.882 187.627C99.6956 188.167 98.5399 188.813 97.2814 189.516L97.2812 189.516C96.5607 189.918 95.8065 190.34 94.9936 190.771V190.771C94.7628 190.893 94.8292 191.244 95.0893 191.269C99.7218 191.717 103.66 191.768 108.193 191.78C108.684 191.781 109.181 191.782 109.687 191.783L109.714 191.783H109.714C114.366 191.79 119.726 191.798 126.988 192.17C134.799 192.571 140.858 191.777 148.801 190.635L150.048 190.456L150.048 190.456C157.779 189.341 167.286 187.971 181.538 187.131C196.029 186.277 207.734 180.56 216.024 173.755C220.172 170.351 223.446 166.689 225.778 163.256C228.131 159.792 229.446 156.68 229.826 154.379L229.829 154.362C229.862 154.16 229.925 153.964 230.014 153.78V153.78L230.015 153.779L230.015 153.778L230.017 153.774L230.028 153.75C230.043 153.717 230.069 153.655 230.104 153.568C230.173 153.392 230.275 153.112 230.384 152.739C230.603 151.992 230.849 150.88 230.924 149.488C231.073 146.732 230.563 142.788 227.708 138.288C224.818 133.733 220.305 130.034 216.392 127.437C214.454 126.15 212.703 125.161 211.44 124.494C210.81 124.161 210.303 123.91 209.957 123.744C209.784 123.661 209.652 123.599 209.565 123.559C209.522 123.539 209.49 123.524 209.47 123.515L209.448 123.506L209.445 123.504L209.445 123.504C209.049 123.328 208.734 123.035 208.52 122.679C208.473 122.6 208.418 122.525 208.356 122.455V122.455C207.105 121.046 205.892 119.006 204.739 116.938C204.313 116.174 203.894 115.403 203.474 114.631C202.707 113.222 201.939 111.81 201.127 110.431C199.877 108.311 198.649 106.497 197.42 105.242C196.175 103.97 195.194 103.542 194.412 103.573C193.421 103.611 191.842 104.296 189.803 105.708C187.847 107.062 185.757 108.877 183.814 110.73C181.879 112.575 180.132 114.418 178.867 115.804C178.235 116.495 177.725 117.07 177.375 117.471C177.2 117.671 177.065 117.827 176.974 117.932L176.873 118.051L176.848 118.08L176.842 118.087L176.841 118.088L176.841 118.088L176.841 118.088L176.82 118.113C176.226 118.816 175.221 119.005 174.412 118.566V118.566L174.412 118.566L174.412 118.566L174.411 118.565L174.41 118.565L174.396 118.557L174.327 118.521C174.263 118.488 174.166 118.437 174.035 118.371C173.775 118.24 173.386 118.048 172.885 117.817C171.884 117.354 170.442 116.734 168.701 116.113C165.196 114.863 160.577 113.648 155.927 113.648C148.115 113.648 141.043 116.381 133.375 119.344C131.752 119.971 130.103 120.609 128.414 121.233V121.233C127.662 121.511 126.767 121.659 125.965 121.641C125.441 121.629 124.921 121.403 124.534 120.967C122.102 118.228 120.031 114.858 118.239 111.857C118.055 111.549 117.875 111.246 117.698 110.949C116.086 108.241 114.752 106.001 113.494 104.559C111.841 102.664 110.547 102.437 109.447 102.697C108.097 103.017 106.514 104.19 104.668 106.241C102.862 108.248 101.056 110.801 99.183 113.468L99.0074 113.718ZM211.632 119.848C211.547 119.807 211.477 119.743 211.421 119.668C211.385 119.619 211.346 119.571 211.304 119.525C210.4 118.506 209.39 116.857 208.224 114.764C207.844 114.083 207.447 113.353 207.037 112.6L207.036 112.597L207.036 112.597L207.035 112.596C206.243 111.14 205.405 109.601 204.559 108.166C203.266 105.973 201.826 103.793 200.23 102.163C198.65 100.55 196.649 99.2025 194.263 99.2954C192.086 99.3803 189.705 100.661 187.587 102.127C185.386 103.651 183.122 105.628 181.105 107.551C179.081 109.481 177.265 111.398 175.958 112.829C175.644 113.173 175.359 113.489 175.107 113.771C174.956 113.94 174.711 113.99 174.505 113.895V113.895C173.416 113.392 171.864 112.724 169.992 112.057C166.271 110.73 161.186 109.368 155.927 109.368C147.331 109.368 139.462 112.42 131.776 115.4C130.205 116.009 128.641 116.615 127.081 117.192V117.192C126.941 117.244 126.78 117.214 126.687 117.098C124.874 114.866 123.235 112.209 121.659 109.571C121.471 109.255 121.282 108.938 121.094 108.621C119.546 106.017 117.997 103.409 116.467 101.656C114.075 98.9147 111.387 97.8523 108.563 98.5205C105.989 99.1299 103.706 101.104 101.739 103.29C99.7311 105.52 97.7767 108.294 95.9358 110.915L95.8384 111.054C93.9952 113.679 92.2684 116.138 90.5828 118.036C90.5145 118.113 90.4527 118.194 90.3972 118.278C90.3419 118.362 90.2729 118.436 90.1934 118.497V118.497C89.8294 118.777 89.4137 119.092 88.954 119.44C84.7103 122.657 76.7148 128.717 70.9956 136.291C67.8152 140.503 65.2107 145.342 64.4125 150.581C63.6008 155.909 64.6879 161.466 68.5817 166.919C76.0348 177.356 84.5918 181.733 91.3765 183.522C92.6117 183.847 93.7852 184.086 94.879 184.261C95.6408 184.383 95.856 185.471 95.1822 185.846V185.846C94.4946 186.229 93.8209 186.605 93.1806 186.945C91.1559 188.019 89.2333 188.875 87.3258 189.208C86.3355 189.382 85.2816 189.561 84.3825 189.64L84.3815 189.64C84.3616 189.641 84.0485 189.66 83.7058 189.823L83.7056 189.823C83.5837 189.881 82.8957 190.209 82.6144 191.099C82.2709 192.186 82.8355 192.986 83.0385 193.221C83.2586 193.477 83.484 193.612 83.5526 193.652C83.6509 193.71 83.7341 193.748 83.7806 193.768C83.8747 193.808 83.954 193.834 83.9914 193.846C84.1287 193.889 84.2815 193.922 84.3711 193.941C84.5949 193.989 84.9186 194.049 85.2923 194.115C86.0498 194.25 87.1018 194.426 88.1857 194.602C90.3228 194.949 92.707 195.317 93.1961 195.372C98.7006 195.987 103.151 196.047 108.184 196.06C108.675 196.061 109.172 196.062 109.676 196.063L109.707 196.063C114.355 196.07 119.629 196.078 126.793 196.445C135.005 196.866 141.384 196.021 149.345 194.877L150.588 194.698C158.297 193.586 167.673 192.234 181.763 191.404C197.155 190.497 209.632 184.419 218.504 177.137C222.937 173.498 226.489 169.543 229.063 165.754C231.487 162.186 233.116 158.658 233.722 155.602C233.749 155.471 233.787 155.342 233.836 155.218V155.218C233.951 154.927 234.098 154.52 234.248 154.006C234.549 152.98 234.866 151.523 234.963 149.733C235.158 146.121 234.452 141.238 231.066 135.902C227.714 130.619 222.648 126.536 218.541 123.811C216.47 122.436 214.6 121.379 213.246 120.664C212.568 120.306 212.017 120.033 211.632 119.848V119.848Z" fill="#FFABAB"/>
<path fill-rule="evenodd" clip-rule="evenodd" d="M122.247 141.933C123.184 143.945 122.312 146.334 120.301 147.271C119.451 147.667 118.281 148.139 116.883 148.153C115.413 148.167 114.212 147.677 113.27 147.176C111.311 146.133 110.569 143.701 111.611 141.742C112.62 139.847 114.93 139.09 116.853 139.988C116.871 139.996 116.891 139.996 116.909 139.988V139.988C118.92 139.051 121.31 139.922 122.247 141.933Z" fill="#FFABAB"/>
<path fill-rule="evenodd" clip-rule="evenodd" d="M155.325 151.495C156.262 153.506 155.391 155.895 153.38 156.832C152.529 157.228 151.36 157.7 149.961 157.714C148.491 157.728 147.29 157.238 146.348 156.737C144.39 155.694 143.647 153.262 144.69 151.303C145.698 149.408 148.009 148.651 149.932 149.549C149.949 149.557 149.97 149.557 149.988 149.549V149.549C151.999 148.612 154.389 149.483 155.325 151.495Z" fill="#FFABAB"/>
<path fill-rule="evenodd" clip-rule="evenodd" d="M191.251 141.933C192.188 143.945 191.317 146.334 189.306 147.271C188.455 147.667 187.286 148.139 185.888 148.153C184.417 148.167 183.216 147.677 182.274 147.176C180.316 146.133 179.573 143.701 180.616 141.742C181.624 139.847 183.935 139.09 185.858 139.988C185.875 139.996 185.896 139.996 185.914 139.988V139.988C187.925 139.051 190.315 139.922 191.251 141.933Z" fill="#FFABAB"/>
<path d="M119.064 83.4189C118.623 83.5312 118.278 83.2539 118.227 82.8015C118.209 82.644 118.2 82.4854 118.2 82.3254C118.2 81.4143 118.457 80.7215 118.969 80.247C119.018 80.2019 119.068 80.1589 119.119 80.118C119.907 79.4882 120.734 78.5792 120.734 77.5706V77.5706C120.734 75.4826 121.275 73.6889 122.357 72.1894C123.439 70.6709 124.967 69.9116 126.941 69.9116C128.023 69.9116 128.868 70.2343 129.475 70.8797C130.102 71.525 130.415 72.2748 130.415 73.129C130.415 73.9831 130.121 74.7139 129.532 75.3213C128.944 75.9097 128.175 76.2039 127.226 76.2039C126.371 76.2039 125.6 76.019 124.915 75.6491C124.779 75.5757 124.611 75.584 124.49 75.6794V75.6794C124.371 75.7727 124.321 75.9287 124.364 76.0735L124.893 77.8738C125.121 78.6494 125.885 79.1518 126.67 78.9589C126.721 78.9463 126.772 78.9333 126.824 78.9201C127.645 78.7085 128.507 79.1432 128.507 79.9907V79.9907C128.507 80.5791 128.327 81.1391 127.966 81.6706V81.6706C127.338 82.6124 126.301 83.3743 126.073 84.4829C125.114 89.1369 124.635 92.5177 124.635 94.6253V94.6253C124.635 96.0484 124.365 98.0736 122.991 98.4452C122.581 98.556 122.19 98.6114 121.816 98.6114C119.69 98.6114 118.627 97.3017 118.627 94.6823C118.627 93.1607 119.139 89.7095 120.161 84.3287C120.27 83.7535 119.631 83.2746 119.064 83.4189V83.4189Z" fill="white"/>
<path d="M144.441 77.7129C145.504 77.7129 146.415 78.14 147.175 78.9942C147.953 79.8484 148.342 81.0916 148.342 82.724C148.342 84.3374 148.057 85.837 147.488 87.2226C146.918 88.5893 146.169 89.7092 145.238 90.5823C144.308 91.4554 143.255 92.1388 142.078 92.6323C140.901 93.1068 139.696 93.3441 138.462 93.3441C135.976 93.3441 134.011 92.6608 132.568 91.2941C131.126 89.9274 130.405 88.1147 130.405 85.8559C130.405 82.7999 131.382 80.3229 133.337 78.4248C135.311 76.5076 137.817 75.5491 140.854 75.5491C141.327 75.5491 141.801 75.5856 142.275 75.6585C142.667 75.719 142.988 76.0061 143.073 76.3941C143.095 76.4945 143.115 76.5968 143.133 76.7009C143.235 77.2974 143.836 77.7129 144.441 77.7129V77.7129ZM140.939 81.6706C140.939 81.1391 141.063 80.5412 141.309 79.8768V79.8768C141.479 79.4532 141.015 78.6951 140.59 78.8623C139.126 79.4392 138.056 80.2614 137.38 81.3289C136.564 82.6196 136.156 83.9483 136.156 85.315C136.156 86.6816 136.431 87.7826 136.982 88.6177C137.551 89.4339 138.272 89.842 139.145 89.842C139.431 89.842 139.705 89.8145 139.966 89.7595C142.957 89.1289 140.939 84.7277 140.939 81.6706V81.6706Z" fill="white"/>
<path d="M164.794 77.7129C165.857 77.7129 166.768 78.14 167.528 78.9942C168.306 79.8484 168.695 81.0916 168.695 82.724C168.695 84.3374 168.41 85.837 167.841 87.2226C167.271 88.5893 166.522 89.7092 165.592 90.5823C164.661 91.4554 163.608 92.1388 162.431 92.6323C161.254 93.1068 160.049 93.3441 158.815 93.3441C156.329 93.3441 154.364 92.6608 152.921 91.2941C151.479 89.9274 150.758 88.1147 150.758 85.8559C150.758 82.7999 151.735 80.3229 153.69 78.4248C155.664 76.5076 158.17 75.5491 161.207 75.5491C161.68 75.5491 162.154 75.5856 162.628 75.6585C163.02 75.719 163.341 76.0061 163.426 76.3941C163.448 76.4945 163.468 76.5968 163.486 76.7009C163.588 77.2974 164.189 77.7129 164.794 77.7129V77.7129ZM161.292 81.6706C161.292 81.1391 161.416 80.5412 161.662 79.8768V79.8768C161.832 79.4532 161.368 78.6951 160.943 78.8623C159.479 79.4392 158.409 80.2614 157.733 81.3289C156.917 82.6196 156.509 83.9483 156.509 85.315C156.509 86.6816 156.784 87.7826 157.335 88.6177C157.904 89.4339 158.625 89.842 159.499 89.842C159.784 89.842 160.058 89.8145 160.319 89.7595C163.31 89.1289 161.292 84.7277 161.292 81.6706V81.6706Z" fill="white"/>
<path d="M182.133 90.6896C182.129 90.6065 182.082 90.5303 182.008 90.4931V90.4931C181.913 90.4458 181.798 90.473 181.733 90.5563C180.276 92.4148 178.548 93.3441 176.549 93.3441C175.03 93.3441 173.74 92.7462 172.677 91.5503C171.633 90.3355 171.111 88.7031 171.111 86.6532C171.111 84.1097 172.003 81.7939 173.787 79.706C174.66 78.681 175.828 77.8553 177.289 77.2289C178.751 76.5836 180.383 76.2609 182.186 76.2609C182.375 76.2609 182.644 76.2724 182.994 76.2955C183.556 76.3326 184.044 75.9807 184.155 75.4284V75.4284C184.212 75.1425 184.169 74.7862 184.002 74.5474L183.8 74.2589C183.192 73.3898 183.451 72.1756 184.405 71.7114C185.974 70.9481 187.265 70.5665 188.279 70.5665C189.057 70.5665 189.608 70.7278 189.931 71.0505C190.253 71.3542 190.415 71.9426 190.415 72.8158C190.415 73.6699 189.988 76.0995 189.133 80.1046C188.298 84.1097 187.881 86.9569 187.881 88.6462V88.6462C187.881 90.5126 187.484 93.2589 185.619 93.34C185.557 93.3427 185.494 93.3441 185.432 93.3441C184.293 93.3441 183.458 93.0594 182.927 92.4899C182.429 91.9396 182.165 91.3395 182.133 90.6896ZM176.463 85.5712C176.463 86.6532 176.739 87.5073 177.289 88.1337C177.859 88.7601 178.561 89.0733 179.396 89.0733C179.938 89.0733 180.456 88.9446 180.951 88.6872C182.005 88.1386 182.409 86.8979 182.537 85.7166C182.582 85.3045 182.629 84.8999 182.678 84.5029C183.042 81.5401 180.435 78.6901 178.399 80.8733V80.8733C177.109 82.278 176.463 83.8439 176.463 85.5712Z" fill="white"/>
<path d="M118.115 215.404C118.115 212.367 119.159 209.89 121.247 207.973C123.335 206.055 125.964 205.097 129.134 205.097C130.766 205.097 132.057 205.41 133.006 206.036C133.955 206.644 134.429 207.413 134.429 208.343C134.429 209.273 134.107 209.985 133.461 210.478C132.835 210.972 132.142 211.218 131.383 211.218C130.643 211.218 129.959 211.019 129.333 210.62V210.62C128.272 209.924 126.922 209.244 126.044 210.16C125.676 210.545 125.348 210.992 125.062 211.503C124.379 212.756 124.037 214.009 124.037 215.261C124.037 216.514 124.284 217.53 124.777 218.308C125.271 219.086 125.916 219.475 126.713 219.475C127.511 219.475 128.156 219.209 128.65 218.678V218.678C129.626 217.665 130.59 216.207 131.944 216.589C133.031 216.895 133.575 217.459 133.575 218.279C133.575 219.399 132.873 220.453 131.468 221.44C130.064 222.408 128.213 222.892 125.916 222.892C123.619 222.892 121.74 222.209 120.279 220.842C118.836 219.456 118.115 217.644 118.115 215.404Z" fill="white"/>
<path d="M152.273 205.097C154.569 205.097 155.718 206.245 155.718 208.542C155.718 209.529 155.433 211.199 154.864 213.553C154.313 215.907 154.038 217.681 154.038 218.877V218.877C154.038 220.434 153.801 222.479 152.279 222.804C152.005 222.863 151.728 222.892 151.447 222.892C149.264 222.892 148.173 221.715 148.173 219.361C148.173 218.488 148.457 217.008 149.027 214.92C149.596 212.832 149.881 211.475 149.881 210.848C149.881 209.994 149.558 209.567 148.913 209.567C148.381 209.567 147.774 209.804 147.091 210.279C146.407 210.734 145.743 211.361 145.098 212.158C144.471 212.936 143.94 213.933 143.503 215.147C143.067 216.343 142.848 217.568 142.848 218.82V218.82C142.848 220.409 142.593 222.505 141.035 222.815C140.779 222.866 140.52 222.892 140.257 222.892C138.075 222.892 136.983 221.715 136.983 219.361C136.983 217.957 137.363 215.11 138.122 210.82C138.586 208.105 138.908 206.248 139.087 205.249C139.176 204.752 139.068 204.236 138.778 203.822V203.822C138.164 202.945 138.426 201.719 139.389 201.251C140.95 200.493 142.236 200.114 143.247 200.114C144.025 200.114 144.576 200.276 144.898 200.598C145.221 200.902 145.382 201.414 145.382 202.136C145.382 203.502 145.25 204.992 144.984 206.606C144.734 208.12 144.502 209.258 144.286 210.02C144.262 210.104 144.3 210.193 144.378 210.232V210.232C144.463 210.274 144.566 210.243 144.614 210.162C146.632 206.785 149.185 205.097 152.273 205.097Z" fill="white"/>
<path d="M169.169 218.792C169.169 218.722 169.13 218.658 169.067 218.627V218.627C168.969 218.578 168.851 218.625 168.81 218.727C168.302 220.003 167.586 221.011 166.663 221.753C165.714 222.512 164.651 222.892 163.475 222.892C161.861 222.892 160.57 222.284 159.602 221.07C158.634 219.855 158.15 218.232 158.15 216.201C158.15 213.05 159.204 210.412 161.311 208.286C163.437 206.16 166.075 205.097 169.226 205.097C169.896 205.097 170.52 205.148 171.101 205.25C171.33 205.291 171.516 205.513 171.557 205.742V205.742C171.637 206.192 172.161 206.416 172.581 206.236C173.243 205.951 173.918 205.809 174.607 205.809C175.993 205.809 176.686 206.558 176.686 208.058C176.686 208.589 176.382 210.193 175.774 212.87C175.186 215.546 174.892 217.53 174.892 218.82V218.82C174.892 220.348 174.727 222.54 173.225 222.82C172.967 222.868 172.706 222.892 172.443 222.892C171.304 222.892 170.469 222.55 169.938 221.867C169.439 221.202 169.183 220.177 169.169 218.792ZM163.503 214.806C163.503 215.736 163.693 216.457 164.072 216.97C164.471 217.463 165.031 217.71 165.752 217.71C166.474 217.71 167.185 217.444 167.888 216.913C168.373 216.545 168.805 216.082 169.182 215.524C169.526 215.014 169.678 214.405 169.748 213.793C169.761 213.679 169.775 213.564 169.789 213.448C170.144 210.581 167.792 208.007 165.695 209.994V209.994C164.234 211.38 163.503 212.984 163.503 214.806Z" fill="white"/>
<path d="M180.819 211.611C180.307 211.75 179.763 211.457 179.71 210.929C179.693 210.755 179.684 210.585 179.684 210.421C179.684 209.491 179.96 208.789 180.51 208.314C180.625 208.215 180.747 208.126 180.877 208.048C181.749 207.518 182.668 206.869 182.409 205.882V205.882C182.189 205.043 182.367 204.007 183.105 203.551C183.565 203.267 184 203.032 184.411 202.848C185.189 202.487 186.005 202.307 186.859 202.307C187.714 202.307 188.302 202.468 188.625 202.791C188.966 203.094 189.137 203.569 189.137 204.214C189.137 204.616 189.086 205.157 188.983 205.838C188.88 206.521 189.442 207.125 190.117 206.976V206.976C190.633 206.861 191.175 207.144 191.22 207.672C191.236 207.862 191.244 208.067 191.244 208.286C191.244 208.912 190.997 209.501 190.504 210.051C190.029 210.582 189.327 210.848 188.397 210.848V210.848C188.147 210.848 187.931 211.022 187.879 211.266C187.256 214.157 186.945 216.4 186.945 217.995V217.995C186.945 220.026 186.534 222.863 184.503 222.891C184.482 222.892 184.46 222.892 184.439 222.892C183.243 222.892 182.38 222.541 181.848 221.838C181.336 221.117 181.08 220.007 181.08 218.507C181.08 217.7 181.341 215.729 181.863 212.594C181.965 211.979 181.42 211.448 180.819 211.611V211.611Z" fill="white"/>
</svg>
