<svg width="786" height="180" viewBox="0 0 786 180" fill="none" xmlns="http://www.w3.org/2000/svg">
<path d="M90.0294 0C52.4552 0 41.4662 0.0387619 39.3301 0.215959C31.6193 0.856916 26.8211 2.071 21.5938 4.67358C17.5653 6.67398 14.3882 8.99277 11.2527 12.2432C5.54219 18.171 2.0813 25.4638 0.82846 34.1327C0.219343 38.3411 0.0421459 39.1994 0.00615269 60.6957C-0.00769086 67.8611 0.00615269 77.2913 0.00615269 89.9402C0.00615269 127.484 0.0476834 138.462 0.22765 140.594C0.850609 148.097 2.02731 152.818 4.51915 157.981C9.28133 167.866 18.3765 175.286 29.0915 178.054C32.8015 179.01 36.8992 179.536 42.1598 179.785C44.3886 179.882 67.1058 179.951 89.8369 179.951C112.568 179.951 135.299 179.923 137.473 179.813C143.564 179.526 147.101 179.051 151.012 178.041C156.324 176.678 161.276 174.172 165.52 170.698C169.764 167.224 173.199 162.865 175.584 157.926C178.027 152.887 179.266 147.986 179.827 140.875C179.949 139.324 180 114.604 180 89.9166C180 65.2253 179.945 40.5505 179.823 39.0001C179.255 31.7737 178.016 26.9146 175.494 21.7787C173.424 17.5744 171.126 14.4347 167.79 11.2244C161.837 5.53742 154.556 2.07653 145.877 0.825076C141.673 0.217344 140.835 0.0373776 119.322 0H90.0294Z" fill="url(#paint0_radial_55_21)"/>
<path d="M90.0294 0C52.4552 0 41.4662 0.0387619 39.3301 0.215959C31.6193 0.856916 26.8211 2.071 21.5938 4.67358C17.5653 6.67398 14.3882 8.99277 11.2527 12.2432C5.54219 18.171 2.0813 25.4638 0.82846 34.1327C0.219343 38.3411 0.0421459 39.1994 0.00615269 60.6957C-0.00769086 67.8611 0.00615269 77.2913 0.00615269 89.9402C0.00615269 127.484 0.0476834 138.462 0.22765 140.594C0.850609 148.097 2.02731 152.818 4.51915 157.981C9.28133 167.866 18.3765 175.286 29.0915 178.054C32.8015 179.01 36.8992 179.536 42.1598 179.785C44.3886 179.882 67.1058 179.951 89.8369 179.951C112.568 179.951 135.299 179.923 137.473 179.813C143.564 179.526 147.101 179.051 151.012 178.041C156.324 176.678 161.276 174.172 165.52 170.698C169.764 167.224 173.199 162.865 175.584 157.926C178.027 152.887 179.266 147.986 179.827 140.875C179.949 139.324 180 114.604 180 89.9166C180 65.2253 179.945 40.5505 179.823 39.0001C179.255 31.7737 178.016 26.9146 175.494 21.7787C173.424 17.5744 171.126 14.4347 167.79 11.2244C161.837 5.53742 154.556 2.07653 145.877 0.825076C141.673 0.217344 140.835 0.0373776 119.322 0H90.0294Z" fill="url(#paint1_radial_55_21)"/>
<path d="M89.9879 23.5339C71.9414 23.5339 69.6766 23.6128 62.5887 23.9354C55.5147 24.2593 50.686 25.3793 46.461 27.0225C42.0906 28.7197 38.3833 30.9901 34.6898 34.6849C30.9936 38.3784 28.7232 42.0857 27.0205 46.4547C25.3731 50.6811 24.2518 55.5112 23.9334 62.5824C23.6177 69.6703 23.5347 71.9365 23.5347 89.983C23.5347 108.029 23.615 110.287 23.9361 117.375C24.2615 124.449 25.3814 129.278 27.0232 133.503C28.7218 137.873 30.9922 141.581 34.687 145.274C38.3791 148.97 42.0864 151.246 46.4541 152.943C50.6819 154.587 55.5119 155.707 62.5846 156.031C69.6725 156.353 71.9359 156.432 89.9809 156.432C108.029 156.432 110.287 156.353 117.375 156.031C124.449 155.707 129.283 154.587 133.511 152.943C137.88 151.246 141.581 148.97 145.273 145.274C148.97 141.581 151.24 137.873 152.943 133.504C154.576 129.278 155.698 124.448 156.03 117.377C156.348 110.289 156.431 108.029 156.431 89.983C156.431 71.9365 156.348 69.6717 156.03 62.5838C155.698 55.5098 154.576 50.6811 152.943 46.4561C151.24 42.0857 148.97 38.3784 145.273 34.6849C141.577 30.9887 137.881 28.7183 133.506 27.0225C129.27 25.3793 124.439 24.2593 117.365 23.9354C110.277 23.6128 108.02 23.5339 89.9685 23.5339H89.9879ZM84.0268 35.5086C85.796 35.5058 87.7701 35.5086 89.9879 35.5086C107.73 35.5086 109.833 35.5723 116.839 35.8907C123.318 36.1869 126.834 37.2695 129.176 38.179C132.277 39.3834 134.488 40.8231 136.812 43.1489C139.138 45.4746 140.578 47.6895 141.785 50.7905C142.694 53.1301 143.778 56.6463 144.073 63.1251C144.392 70.1299 144.461 72.2342 144.461 89.9678C144.461 107.701 144.392 109.806 144.073 116.81C143.777 123.289 142.694 126.805 141.785 129.145C140.581 132.246 139.138 134.454 136.812 136.778C134.487 139.104 132.279 140.544 129.176 141.748C126.837 142.662 123.318 143.742 116.839 144.038C109.834 144.356 107.73 144.426 89.9879 144.426C72.2446 144.426 70.1418 144.356 63.1369 144.038C56.6581 143.739 53.1419 142.656 50.7982 141.747C47.6972 140.542 45.4822 139.103 43.1565 136.777C40.8308 134.451 39.3911 132.242 38.1839 129.139C37.2744 126.8 36.1904 123.284 35.8956 116.805C35.5772 109.8 35.5135 107.696 35.5135 89.9511C35.5135 72.2065 35.5772 70.1133 35.8956 63.1085C36.1918 56.6297 37.2744 53.1135 38.1839 50.7711C39.3883 47.6702 40.8308 45.4552 43.1565 43.1295C45.4822 40.8038 47.6972 39.364 50.7982 38.1569C53.1405 37.2432 56.6581 36.1634 63.1369 35.8658C69.2668 35.5889 71.6424 35.5058 84.0268 35.492V35.5086ZM125.458 46.5419C123.881 46.5419 122.339 47.0096 121.027 47.886C119.716 48.7623 118.694 50.0078 118.091 51.465C117.487 52.9222 117.329 54.5256 117.637 56.0725C117.945 57.6193 118.705 59.0401 119.82 60.1552C120.936 61.2702 122.357 62.0295 123.904 62.3368C125.451 62.6442 127.054 62.4859 128.511 61.8819C129.968 61.278 131.213 60.2555 132.089 58.9438C132.965 57.6322 133.432 56.0902 133.432 54.513C133.432 50.1108 129.86 46.5392 125.458 46.5392V46.5419ZM89.9879 55.8586C71.1426 55.8586 55.8635 71.1378 55.8635 89.983C55.8635 108.828 71.1426 124.1 89.9879 124.1C108.833 124.1 124.108 108.828 124.108 89.983C124.108 71.1378 108.833 55.8586 89.9879 55.8586ZM89.9879 67.8333C102.22 67.8333 112.138 77.7494 112.138 89.983C112.138 102.215 102.22 112.133 89.9879 112.133C77.7543 112.133 67.8382 102.215 67.8382 89.983C67.8382 77.7494 77.7543 67.8333 89.9879 67.8333Z" fill="white"/>
<path d="M250.043 20.5546C238.495 25.3877 225.796 39.026 221.787 56.1801C216.702 77.8955 237.844 87.0661 239.572 84.0744C241.604 80.5256 235.771 79.3345 234.58 68.0745C233.048 53.5137 239.799 37.2456 248.32 30.1072C249.909 28.8024 249.832 30.6438 249.832 34.0383C249.832 40.1602 249.491 94.9319 249.491 106.367C249.491 121.846 248.856 126.72 247.686 131.533C246.535 136.428 244.674 139.728 246.076 141.013C247.665 142.431 254.417 139.053 258.332 133.59C263.015 127.045 264.665 119.18 264.97 110.643C265.316 100.363 265.295 84.0174 265.316 74.7126C265.316 66.1557 265.45 41.1397 265.182 26.0789C265.104 22.396 254.86 18.5384 250.043 20.5546ZM782.49 101.818C780.839 101.818 780.055 103.546 779.421 106.444C777.234 116.554 774.933 118.834 771.957 118.834C768.64 118.834 765.665 113.83 764.88 103.814C764.287 95.9481 764.38 81.4442 765.148 67.0175C765.303 64.0624 764.494 61.1313 756.551 58.2332C753.12 57.0054 748.148 55.164 745.677 61.1478C738.673 78.0135 735.949 91.4402 735.295 96.8709C735.28 97.1554 734.933 97.1962 734.872 96.5456C734.474 92.188 733.551 84.2652 733.437 67.6111C733.397 64.3917 732.726 61.6069 729.12 59.3429C726.799 57.8874 719.738 55.2777 717.185 58.3673C714.998 60.8996 712.45 67.6922 709.783 75.7492C707.633 82.3101 706.137 86.7613 706.137 86.7613C706.137 86.7613 706.152 69.0703 706.194 62.3551C706.194 59.8225 704.466 58.981 703.95 58.8265C701.588 58.1356 696.925 57.0054 694.97 57.0054C692.535 57.0054 691.958 58.3673 691.958 60.3429C691.958 60.5908 691.556 83.611 691.556 99.7084V101.972C690.23 109.379 685.861 119.432 681.121 119.432C676.381 119.432 674.137 115.228 674.137 96.0456C674.137 84.8588 674.483 79.9891 674.637 71.8916C674.731 67.2288 674.922 63.6435 674.906 62.8185C674.865 60.3429 670.548 59.0746 668.552 58.6152C666.54 58.1356 664.792 57.981 663.414 58.0381C661.495 58.1557 660.133 59.42 660.133 61.1883V63.8712C657.658 59.9606 653.645 57.2332 650.962 56.4484C643.788 54.3186 636.284 56.2167 630.625 64.1191C626.138 70.416 623.43 77.5296 622.377 87.7573C621.589 95.2408 621.841 102.818 623.239 109.224C621.552 116.456 618.443 119.432 615.048 119.432C610.097 119.432 606.532 111.371 606.935 97.4237C607.223 88.2573 609.044 81.8305 611.056 72.5053C611.922 68.5337 611.211 66.4648 609.467 64.4484C607.874 62.6435 604.459 61.7045 599.569 62.8347C596.093 63.66 591.089 64.542 586.54 65.2166C586.54 65.2166 586.809 64.1191 587.04 62.1843C588.211 52.0338 577.179 52.8591 573.667 56.103C571.557 58.0381 570.118 60.3225 569.581 64.4282C568.719 70.9526 574.032 74.0214 574.032 74.0214C572.288 82.0012 568.028 92.4359 563.597 99.9767C561.236 104.025 559.431 107.001 557.094 110.184C557.072 109.013 557.072 107.822 557.072 106.655C557.032 89.867 557.243 76.6516 557.34 71.8916C557.438 67.2288 557.629 63.7371 557.629 62.9118C557.589 61.1069 556.536 60.3996 554.308 59.5542C552.353 58.7899 550.032 58.2332 547.633 58.0381C544.621 57.8103 542.78 59.4201 542.837 61.3185V63.8712C540.345 59.9606 536.333 57.2332 533.686 56.4484C526.491 54.3186 518.991 56.2167 513.333 64.1191C508.861 70.416 505.906 79.2208 505.06 87.6597C504.296 95.5661 504.431 102.241 505.504 107.883C504.353 113.521 501.073 119.432 497.353 119.432C492.614 119.432 489.906 115.228 489.906 96.0456C489.906 84.8588 490.252 79.9891 490.426 71.8916C490.52 67.2288 490.695 63.6435 490.675 62.8185C490.654 60.3429 486.341 59.0746 484.325 58.6152C482.236 58.1191 480.41 57.9649 479.028 58.0381C477.187 58.1923 475.902 59.8225 475.902 61.0703V63.8712C473.41 59.9606 469.398 57.2332 466.732 56.4484C459.557 54.3186 452.114 56.2576 446.415 64.1191C442.695 69.2453 439.683 74.9403 438.13 87.5661C437.707 91.2124 437.496 94.6231 437.517 97.8099C436.037 106.863 429.496 117.302 424.163 117.302C421.017 117.302 418.025 111.237 418.025 98.2895C418.025 81.0622 419.098 56.5054 419.289 54.1274C419.289 54.1274 426.041 54.0094 427.366 53.9933C430.724 53.9728 433.793 54.0503 438.264 53.8186C440.529 53.7046 442.695 45.6275 440.354 44.6113C439.317 44.1681 431.874 43.7656 428.919 43.7089C426.427 43.6519 419.537 43.1358 419.537 43.1358C419.537 43.1358 420.155 26.8472 420.289 25.1399C420.403 23.6804 418.561 22.953 417.488 22.5097C414.895 21.4 412.574 20.8799 409.85 20.3229C406.033 19.5384 404.326 20.3067 404 23.5057C403.5 28.3633 403.232 42.5992 403.232 42.5992C400.432 42.5992 390.936 42.0382 388.151 42.0382C385.566 42.0382 382.761 53.168 386.35 53.3021C390.476 53.4567 397.631 53.6113 402.387 53.7411C402.387 53.7411 402.175 78.7043 402.175 86.3954V88.7734C399.549 102.411 390.358 109.781 390.358 109.781C392.334 100.745 388.305 93.9725 381.017 88.2573C378.33 86.1271 373.037 82.115 367.107 77.7613C367.107 77.7613 370.542 74.3672 373.59 67.5745C375.741 62.7575 375.838 57.2167 370.542 56.0054C361.793 53.9933 354.598 60.42 352.432 67.2858C350.781 72.5824 351.647 76.5336 354.924 80.6189L355.672 81.5418C353.716 85.3384 350.993 90.4603 348.708 94.4319C342.322 105.464 337.505 114.176 333.879 114.176C330.964 114.176 331.001 105.33 331.001 97.0417C331.001 89.9036 331.538 79.1433 331.961 68.0175C332.095 64.3508 330.253 62.2411 327.168 60.3429C325.286 59.1923 321.294 56.9283 318.973 56.9283C315.522 56.9283 305.506 57.3874 296.05 84.7247C294.859 88.1798 292.518 94.4523 292.518 94.4523L292.729 61.5703C292.729 60.8021 292.327 60.0746 291.388 59.5542C289.794 58.6923 285.518 56.9283 281.758 56.9283C279.933 56.9283 279.03 57.7737 279.03 59.4405L278.725 110.855C278.725 114.769 278.819 119.334 279.205 121.33C279.587 123.326 280.221 124.956 280.989 125.932C281.758 126.875 282.656 127.602 284.116 127.928C285.477 128.216 292.977 129.155 293.363 126.297C293.843 122.862 293.859 119.163 297.794 105.294C303.932 83.7287 311.916 73.2166 315.676 69.4727C316.347 68.8224 317.095 68.7819 317.054 69.859C316.884 74.5946 316.327 86.3954 315.945 96.4279C314.928 123.306 319.798 128.273 326.802 128.273C332.135 128.273 339.656 122.96 347.733 109.533C352.777 101.147 357.651 92.9563 361.18 87.0295C363.598 89.2896 366.359 91.7286 369.103 94.3383C375.493 100.379 377.582 106.135 376.184 111.586C375.127 115.765 371.119 120.062 364.001 115.883C361.928 114.672 361.046 113.733 358.956 112.35C357.842 111.602 356.115 111.391 355.098 112.159C352.412 114.176 350.895 116.724 350.013 119.891C349.188 122.98 352.277 124.59 355.481 126.009C358.225 127.257 364.135 128.35 367.911 128.484C382.627 128.984 394.407 121.387 402.598 101.818C404.078 118.72 410.31 128.293 421.151 128.293C428.419 128.293 435.691 118.911 438.878 109.684C439.777 113.444 441.138 116.704 442.886 119.489C451.252 132.724 467.48 129.887 475.614 118.643C478.146 115.151 478.532 113.903 478.532 113.903C479.719 124.517 488.276 128.253 493.17 128.253C498.675 128.253 504.317 125.647 508.284 116.704C508.764 117.684 509.264 118.606 509.841 119.489C518.187 132.724 534.414 129.887 542.568 118.643C542.934 118.086 543.28 117.627 543.564 117.184L543.816 124.167C543.816 124.167 539.154 128.428 536.296 131.054C523.731 142.586 514.174 151.334 513.467 161.501C512.585 174.488 523.097 179.305 531.077 179.935C539.52 180.61 546.772 175.947 551.219 169.386C555.133 163.63 557.707 151.257 557.515 139.017C557.438 134.106 557.32 127.891 557.207 121.196C561.637 116.094 566.625 109.606 571.194 102.013C576.198 93.7612 581.531 82.6515 584.255 74.0013C584.255 74.0013 588.918 74.0419 593.869 73.733C595.462 73.6355 595.922 73.9647 595.613 75.115C595.267 76.5135 589.361 99.3261 594.751 114.521C598.454 124.915 606.759 128.273 611.71 128.273C617.482 128.273 623.011 123.899 625.962 117.416C626.328 118.127 626.694 118.834 627.116 119.489C635.462 132.724 651.633 129.867 659.844 118.643C661.706 116.094 662.742 113.903 662.742 113.903C664.506 124.899 673.063 128.293 677.953 128.293C683.075 128.293 687.908 126.204 691.843 116.916C691.998 121.005 692.246 124.342 692.669 125.395C692.917 126.05 694.376 126.854 695.413 127.257C700.091 128.984 704.852 128.159 706.595 127.793C707.823 127.545 708.782 126.586 708.9 124.054C709.242 117.416 709.031 106.269 711.047 97.9645C714.441 84.0744 717.587 78.6842 719.083 76.0175C719.912 74.5175 720.868 74.2696 720.888 75.8428C720.945 79.0458 721.12 88.4481 722.441 101.111C723.384 110.395 724.669 115.899 725.664 117.647C728.465 122.615 731.957 122.846 734.778 122.846C736.583 122.846 740.343 122.346 740.014 119.18C739.843 117.647 740.132 108.111 743.449 94.4158C745.636 85.4564 749.262 77.3793 750.566 74.4239C751.066 73.3306 751.278 74.176 751.278 74.3467C750.989 80.5052 750.376 100.668 752.867 111.68C756.286 126.627 766.123 128.293 769.558 128.293C776.867 128.293 782.875 122.728 784.887 108.074C785.387 104.542 784.656 101.818 782.49 101.818ZM475.748 92.7652C475.345 100.513 473.829 107.001 471.415 111.7C467 120.237 458.313 122.923 454.492 110.627C451.712 101.745 452.651 89.6189 453.821 83.0744C455.508 73.3672 459.789 66.5014 466.464 67.1313C473.293 67.8062 476.63 76.611 475.748 92.7652ZM542.683 92.8792C542.301 100.188 540.403 107.554 538.329 111.7C534.053 120.294 525.11 122.98 521.407 110.627C518.878 102.164 519.472 91.249 520.736 84.3793C522.37 75.4403 526.301 67.1313 533.382 67.1313C540.268 67.1313 543.663 74.6922 542.683 92.8792ZM544.431 142.834C544.333 156.208 542.244 167.911 537.752 171.325C531.346 176.159 522.732 172.513 524.516 162.769C526.09 154.135 533.553 145.33 544.451 134.566C544.451 134.566 544.489 137.021 544.431 142.834ZM659.999 92.9563C659.613 100.997 657.828 107.269 655.625 111.7C651.345 120.294 642.483 122.96 638.703 110.627C636.649 103.891 636.552 92.6475 638.032 83.2695C639.528 73.7126 643.731 66.5014 650.674 67.1313C657.54 67.7858 660.747 76.611 659.999 92.9563Z" fill="url(#paint2_linear_55_21)"/>
<defs>
<radialGradient id="paint0_radial_55_21" cx="0" cy="0" r="1" gradientUnits="userSpaceOnUse" gradientTransform="translate(47.8127 193.811) rotate(-90) scale(178.345 165.92)">
<stop stop-color="#FFDD55"/>
<stop offset="0.1" stop-color="#FFDD55"/>
<stop offset="0.5" stop-color="#FF543E"/>
<stop offset="1" stop-color="#C837AB"/>
</radialGradient>
<radialGradient id="paint1_radial_55_21" cx="0" cy="0" r="1" gradientUnits="userSpaceOnUse" gradientTransform="translate(-30.151 12.9634) rotate(78.6776) scale(79.7216 328.699)">
<stop stop-color="#3771C8"/>
<stop offset="0.128" stop-color="#3771C8"/>
<stop offset="1" stop-color="#6600FF" stop-opacity="0"/>
</radialGradient>
<linearGradient id="paint2_linear_55_21" x1="200.076" y1="122.724" x2="267.726" y2="53.6236" gradientUnits="userSpaceOnUse">
<stop stop-color="#FFD521"/>
<stop offset="0.05" stop-color="#FFD521"/>
<stop offset="0.501119" stop-color="#F50000"/>
<stop offset="0.95" stop-color="#B900B4"/>
<stop offset="0.950079" stop-color="#B900B4"/>
<stop offset="1" stop-color="#B900B4"/>
</linearGradient>
</defs>
</svg>
