<svg width="164" height="153" viewBox="0 0 164 153" fill="none" xmlns="http://www.w3.org/2000/svg">
<path fill-rule="evenodd" clip-rule="evenodd" d="M31.0563 43.8125L31.2322 43.5623C33.1079 40.8952 34.9171 38.3416 36.7261 36.3347C38.575 34.2833 40.1606 33.1098 41.5121 32.7904C42.2159 32.624 42.9984 32.6565 43.9032 33.1949L45.5745 34.6734C45.5891 34.6863 45.6036 34.6992 45.6181 34.7122C46.8626 36.1556 48.1841 38.3721 49.7764 41.0426C49.9537 41.34 50.1343 41.6429 50.3186 41.9511C52.1131 44.9522 54.1877 48.3231 56.6234 51.0623C57.0114 51.4987 57.5318 51.7249 58.0569 51.7368C58.8603 51.7548 59.7562 51.6064 60.51 51.3283C62.2013 50.7042 63.8532 50.0668 65.4783 49.4397C73.1588 46.476 80.2415 43.7429 88.0662 43.7429C92.7237 43.7429 97.35 44.9579 100.86 46.2075C102.605 46.8285 104.049 47.4491 105.052 47.9121C105.553 48.1434 105.943 48.3347 106.204 48.4662C106.334 48.5319 106.432 48.5826 106.495 48.6158L106.564 48.6522L106.579 48.66L106.58 48.6605L106.581 48.6611C107.391 49.0997 108.398 48.9107 108.993 48.2083L109.014 48.1832L109.015 48.1818L109.021 48.1752L109.045 48.1462L109.147 48.0274C109.238 47.922 109.373 47.7656 109.549 47.5655C109.899 47.1652 110.41 46.5903 111.042 45.8986C112.31 44.513 114.06 42.6692 115.998 40.8237C117.943 38.9706 120.037 37.1556 121.996 35.8015C124.038 34.3893 125.62 33.7044 126.612 33.6657C127.396 33.6352 128.378 34.0636 129.626 35.3358C130.856 36.5903 132.086 38.405 133.338 40.5249C134.152 41.9038 134.921 43.316 135.689 44.7257C136.109 45.4975 136.529 46.2686 136.956 47.0331C138.11 49.101 139.325 51.1414 140.579 52.5511C140.64 52.6204 140.695 52.6953 140.743 52.7748C140.957 53.1311 141.273 53.4242 141.669 53.5998L141.673 53.6014L141.694 53.6109C141.714 53.6201 141.746 53.6347 141.79 53.6547C141.877 53.6948 142.009 53.7566 142.182 53.8397C142.528 54.0059 143.036 54.2571 143.668 54.59C144.933 55.2565 146.686 56.2464 148.627 57.5329C152.546 60.1305 157.067 63.8305 159.961 68.3853C162.821 72.8866 163.332 76.831 163.182 79.587C163.107 80.9799 162.861 82.0919 162.642 82.8389C162.532 83.2118 162.43 83.4916 162.361 83.6673C162.326 83.755 162.3 83.8165 162.285 83.8502L162.274 83.8739L162.272 83.8778L162.271 83.8798C162.182 84.0637 162.119 84.2597 162.086 84.4616L162.083 84.4792C161.702 86.7799 160.385 89.893 158.029 93.3569C155.693 96.7903 152.413 100.453 148.259 103.858C139.955 110.664 128.232 116.381 113.718 117.235C99.4435 118.075 89.9211 119.446 82.178 120.56L80.9288 120.74C72.9736 121.882 66.9047 122.676 59.0818 122.275C51.8081 121.903 46.4396 121.894 41.7797 121.887L41.7534 121.887C41.2466 121.887 40.7482 121.886 40.2566 121.885C35.7164 121.873 31.7719 121.822 27.132 121.374C26.8715 121.348 26.805 120.998 27.0362 120.875C27.8497 120.444 28.6046 120.023 29.3257 119.621L29.3274 119.62C30.5879 118.917 31.7456 118.271 32.9338 117.731C33.4401 117.5 34.5605 116.93 35.4833 116.209C35.9184 115.869 36.5052 115.349 36.8889 114.662C37.0923 114.297 37.3011 113.775 37.3068 113.138C37.313 112.453 37.0822 111.826 36.6941 111.327C36.3185 110.845 35.8595 110.68 35.7403 110.638C35.5606 110.575 35.4063 110.549 35.3249 110.537C35.156 110.512 34.996 110.507 34.8975 110.505C34.6916 110.501 34.4259 110.508 34.1683 110.515L34.1228 110.516C33.5674 110.531 32.8226 110.551 31.9 110.529C30.0227 110.485 27.4131 110.267 24.3928 109.472C18.3825 107.89 10.6544 104.004 3.8151 94.44C0.562937 89.8924 -0.225792 85.5068 0.4066 81.362C1.05245 77.1289 3.21196 72.9663 6.16567 69.0603C11.5159 61.985 19.0511 56.2729 23.3391 53.0223L23.3399 53.0217L23.3416 53.0204C23.805 52.6692 24.2304 52.3467 24.611 52.0544C24.6922 51.9919 24.7678 51.9243 24.8377 51.8522C25.0862 51.5955 25.3341 51.3294 25.5715 51.0624C27.4229 48.9802 29.2737 46.3479 31.0563 43.8125ZM54.3328 72.0317C55.2709 74.0432 54.3985 76.4332 52.384 77.37C51.5321 77.7663 50.361 78.2381 48.9603 78.2517C47.4875 78.2659 46.2846 77.7759 45.3414 77.2746C43.3798 76.232 42.636 73.799 43.6801 71.8402C44.6903 69.9449 47.0044 69.1881 48.9303 70.0856C48.9481 70.0939 48.9688 70.0941 48.9867 70.0858C51.0011 69.149 53.3946 70.0202 54.3328 72.0317ZM85.5151 86.9322C87.5295 85.9954 88.402 83.6054 87.4638 81.5939C86.5256 79.5824 84.1321 78.7112 82.1177 79.648C82.0999 79.6563 82.0792 79.6561 82.0613 79.6478C80.1354 78.7503 77.8214 79.5071 76.8111 81.4024C75.767 83.3611 76.5108 85.7942 78.4724 86.8367C79.4157 87.3381 80.6186 87.8281 82.0913 87.8138C83.492 87.8003 84.6631 87.3284 85.5151 86.9322ZM123.447 72.0317C124.385 74.0432 123.513 76.4332 121.498 77.37C120.646 77.7662 119.475 78.2381 118.075 78.2516C116.602 78.2659 115.399 77.7759 114.456 77.2746C112.494 76.232 111.75 73.7989 112.794 71.8402C113.805 69.9449 116.119 69.1881 118.045 70.0856C118.062 70.0939 118.083 70.0941 118.101 70.0858C120.115 69.149 122.509 70.0202 123.447 72.0317Z" fill="white"/>
<path d="M51.1442 13.5092C50.7023 13.6214 50.3577 13.3439 50.3064 12.8909C50.2886 12.7337 50.2797 12.5752 50.2797 12.4154C50.2797 11.5042 50.5363 10.8113 51.0496 10.3367C51.099 10.2911 51.1496 10.2476 51.2016 10.2062C51.9905 9.57764 52.8177 8.66864 52.8177 7.65998V7.65998C52.8177 5.57176 53.3595 3.77779 54.4432 2.27806C55.5268 0.759354 57.0573 0 59.0345 0C60.1181 0 60.9641 0.322726 61.5725 0.968176C62.1999 1.61363 62.5136 2.36349 62.5136 3.21776C62.5136 4.07204 62.2189 4.80291 61.6295 5.4104C61.0402 5.9989 60.2702 6.29315 59.3196 6.29315C58.4629 6.29315 57.6911 6.10811 57.0043 5.73803C56.8683 5.66475 56.7009 5.67303 56.5794 5.76838V5.76838C56.4604 5.86171 56.4104 6.01814 56.4531 6.16318L56.9828 7.96136C57.2116 8.73819 57.976 9.24144 58.7625 9.04846C58.8146 9.03568 58.8667 9.02258 58.9189 9.00914C59.74 8.79765 60.6029 9.23251 60.6029 10.0804V10.0804C60.6029 10.6689 60.4223 11.2289 60.0611 11.7605V11.7605C59.4319 12.7029 58.3933 13.4651 58.1644 14.5749C57.2045 19.2286 56.7246 22.6093 56.7246 24.717V24.717C56.7246 26.1397 56.4537 28.165 55.0804 28.5366C54.6692 28.6479 54.2762 28.7036 53.9014 28.7036C51.7721 28.7036 50.7074 27.3937 50.7074 24.7739C50.7074 23.2523 51.2194 19.8013 52.2432 14.421C52.3529 13.8448 51.7127 13.3648 51.1442 13.5092V13.5092Z" fill="white"/>
<path d="M76.5623 7.80236C77.6269 7.80236 78.5395 8.2295 79.3 9.08377C80.0794 9.93805 80.4692 11.1815 80.4692 12.8141C80.4692 14.4277 80.184 15.9274 79.6137 17.3133C79.0433 18.6801 78.2924 19.8002 77.3608 20.6734C76.4292 21.5467 75.3741 22.2301 74.1954 22.7237C73.0167 23.1983 71.8094 23.4356 70.5737 23.4356C68.0832 23.4356 66.1155 22.7521 64.6706 21.3853C63.2257 20.0185 62.5033 18.2055 62.5033 15.9464C62.5033 12.89 63.4824 10.4126 65.4406 8.51426C67.4178 6.59689 69.9273 5.6382 72.9691 5.6382C73.4437 5.6382 73.9183 5.67472 74.3929 5.74775C74.7857 5.80819 75.1065 6.09528 75.1917 6.48345C75.2136 6.58331 75.2335 6.68501 75.2513 6.78854C75.3541 7.38601 75.9561 7.80236 76.5623 7.80236V7.80236ZM73.0547 11.7605C73.0547 11.2289 73.1783 10.631 73.4254 9.96652V9.96652C73.5951 9.54304 73.1313 8.78433 72.7067 8.95126C71.2392 9.52827 70.167 10.3508 69.49 11.4188C68.6725 12.7097 68.2638 14.0386 68.2638 15.4054C68.2638 16.7722 68.5395 17.8733 69.0908 18.7086C69.6611 19.5249 70.3836 19.933 71.2581 19.933C71.5449 19.933 71.8191 19.9054 72.081 19.8502C75.0732 19.2192 73.0547 14.8185 73.0547 11.7605V11.7605Z" fill="white"/>
<path d="M96.9477 7.80236C98.0123 7.80236 98.9249 8.2295 99.6853 9.08377C100.465 9.93805 100.855 11.1815 100.855 12.8141C100.855 14.4277 100.569 15.9274 99.999 17.3133C99.4287 18.6801 98.6777 19.8002 97.7462 20.6734C96.8146 21.5467 95.7595 22.2301 94.5807 22.7237C93.402 23.1983 92.1948 23.4356 90.9591 23.4356C88.4685 23.4356 86.5009 22.7521 85.056 21.3853C83.6111 20.0185 82.8887 18.2055 82.8887 15.9464C82.8887 12.89 83.8678 10.4126 85.826 8.51426C87.8031 6.59689 90.3127 5.6382 93.3545 5.6382C93.8291 5.6382 94.3037 5.67472 94.7783 5.74775C95.1711 5.80819 95.4919 6.09528 95.5771 6.48345C95.599 6.58331 95.6188 6.68501 95.6366 6.78854C95.7394 7.38601 96.3414 7.80236 96.9477 7.80236V7.80236ZM93.4401 11.7605C93.4401 11.2289 93.5636 10.631 93.8108 9.96652V9.96652C93.9804 9.54304 93.5167 8.78433 93.0921 8.95126C91.6246 9.52827 90.5523 10.3508 89.8754 11.4188C89.0579 12.7097 88.6492 14.0386 88.6492 15.4054C88.6492 16.7722 88.9248 17.8733 89.4762 18.7086C90.0465 19.5249 90.7689 19.933 91.6435 19.933C91.9302 19.933 92.2045 19.9054 92.4663 19.8502C95.4585 19.2192 93.4401 14.8185 93.4401 11.7605V11.7605Z" fill="white"/>
<path d="M114.314 20.781C114.309 20.6977 114.263 20.6214 114.188 20.5841V20.5841C114.094 20.5368 113.979 20.5641 113.913 20.6473C112.454 22.5062 110.723 23.4356 108.721 23.4356C107.2 23.4356 105.907 22.8376 104.842 21.6416C103.797 20.4266 103.274 18.794 103.274 16.7438C103.274 14.1999 104.168 11.8839 105.955 9.79567C106.829 8.77054 107.998 7.94474 109.462 7.31828C110.926 6.67282 112.561 6.3501 114.367 6.3501C114.556 6.3501 114.827 6.36169 115.178 6.38486C115.74 6.42191 116.228 6.07015 116.339 5.518V5.518C116.396 5.23183 116.353 4.87514 116.186 4.63615L115.984 4.34783C115.375 3.479 115.634 2.26437 116.588 1.80057C118.16 1.03682 119.454 0.654943 120.47 0.654943C121.249 0.654943 121.801 0.816306 122.124 1.13903C122.447 1.44277 122.609 2.03127 122.609 2.90453C122.609 3.7588 122.181 6.18874 121.325 10.1943C120.489 14.1999 120.071 17.0475 120.071 18.7371V18.7371C120.071 20.6031 119.673 23.3488 117.809 23.4313C117.746 23.4342 117.682 23.4356 117.618 23.4356C116.478 23.4356 115.641 23.1508 115.109 22.5813C114.611 22.031 114.346 21.4309 114.314 20.781ZM108.635 15.6617C108.635 16.7438 108.911 17.598 109.462 18.2245C110.033 18.851 110.736 19.1642 111.573 19.1642C112.116 19.1642 112.635 19.0354 113.13 18.7778C114.185 18.2293 114.59 16.9881 114.719 15.806C114.764 15.3966 114.81 14.9945 114.859 14.5998C115.224 11.6335 112.614 8.77877 110.574 10.9632V10.9632C109.282 12.368 108.635 13.9341 108.635 15.6617Z" fill="white"/>
<path d="M50.1942 145.511C50.1942 142.473 51.2398 139.996 53.3311 138.079C55.4224 136.161 58.0555 135.202 61.2304 135.202C62.8654 135.202 64.1582 135.516 65.1087 136.142C66.0593 136.75 66.5346 137.519 66.5346 138.449C66.5346 139.379 66.2114 140.091 65.565 140.584C64.9376 141.078 64.2437 141.325 63.4832 141.325C62.7418 141.325 62.0574 141.125 61.43 140.727V140.727C60.3676 140.031 59.016 139.349 58.1366 140.266C57.7674 140.651 57.4393 141.098 57.1524 141.61C56.468 142.862 56.1258 144.115 56.1258 145.368C56.1258 146.621 56.3729 147.637 56.8672 148.415C57.3615 149.194 58.0079 149.583 58.8064 149.583C59.6049 149.583 60.2513 149.317 60.7456 148.785V148.785C61.7234 147.773 62.6871 146.315 64.0423 146.695C65.1335 147.002 65.6791 147.565 65.6791 148.387C65.6791 149.507 64.9756 150.56 63.5688 151.548C62.1619 152.516 60.3083 153 58.0079 153C55.7075 153 53.8254 152.316 52.3615 150.95C50.9167 149.564 50.1942 147.751 50.1942 145.511Z" fill="white"/>
<path d="M84.4062 135.202C86.7066 135.202 87.8568 136.351 87.8568 138.648C87.8568 139.635 87.5716 141.306 87.0013 143.66C86.4499 146.014 86.1743 147.789 86.1743 148.985V148.985C86.1743 150.541 85.9371 152.585 84.4153 152.911C84.1402 152.97 83.8615 153 83.5792 153C81.3929 153 80.2997 151.823 80.2997 149.469C80.2997 148.596 80.5849 147.115 81.1552 145.027C81.7256 142.938 82.0108 141.581 82.0108 140.955C82.0108 140.1 81.6876 139.673 81.0412 139.673C80.5088 139.673 79.9005 139.91 79.2161 140.385C78.5317 140.841 77.8663 141.467 77.2199 142.264C76.5925 143.043 76.0602 144.039 75.6229 145.254C75.1856 146.45 74.967 147.675 74.967 148.928V148.928C74.967 150.516 74.7107 152.612 73.1533 152.923C72.896 152.974 72.6356 153 72.3719 153C70.1856 153 69.0924 151.823 69.0924 149.469C69.0924 148.064 69.4727 145.216 70.2331 140.926C70.6977 138.211 71.0199 136.354 71.1997 135.355C71.2892 134.857 71.1807 134.341 70.8905 133.927V133.927C70.2757 133.05 70.5377 131.824 71.5014 131.357C73.0654 130.598 74.3537 130.219 75.3662 130.219C76.1457 130.219 76.697 130.381 77.0202 130.703C77.3434 131.007 77.505 131.52 77.505 132.241C77.505 133.608 77.372 135.098 77.1058 136.712C76.856 138.226 76.6229 139.364 76.4066 140.126C76.3828 140.21 76.4214 140.3 76.4994 140.339V140.339C76.5839 140.381 76.6869 140.349 76.7354 140.268C78.7564 136.891 81.3133 135.202 84.4062 135.202Z" fill="white"/>
<path d="M101.33 148.9C101.329 148.83 101.29 148.766 101.227 148.734V148.734C101.129 148.686 101.011 148.732 100.97 148.834C100.461 150.11 99.7438 151.119 98.8199 151.861C97.8693 152.62 96.8047 153 95.626 153C94.01 153 92.7172 152.392 91.7476 151.177C90.778 149.962 90.2932 148.339 90.2932 146.308C90.2932 143.157 91.3484 140.518 93.4586 138.392C95.5879 136.266 98.2305 135.202 101.386 135.202C102.057 135.202 102.683 135.254 103.264 135.356C103.494 135.396 103.681 135.618 103.722 135.848V135.848C103.802 136.299 104.325 136.523 104.746 136.342C105.409 136.057 106.086 135.914 106.776 135.914C108.164 135.914 108.858 136.664 108.858 138.164C108.858 138.696 108.554 140.3 107.945 142.976C107.356 145.653 107.061 147.637 107.061 148.928V148.928C107.061 150.455 106.896 152.647 105.395 152.927C105.135 152.976 104.873 153 104.609 153C103.468 153 102.632 152.658 102.099 151.975C101.6 151.309 101.343 150.284 101.33 148.9ZM95.6545 144.913C95.6545 145.843 95.8446 146.564 96.2248 147.077C96.6241 147.57 97.1849 147.817 97.9073 147.817C98.6298 147.817 99.3427 147.551 100.046 147.02C100.533 146.652 100.964 146.189 101.342 145.631C101.687 145.121 101.839 144.511 101.909 143.899C101.922 143.788 101.936 143.675 101.95 143.561C102.305 140.691 99.9507 138.112 97.8503 140.1V140.1C96.3864 141.486 95.6545 143.09 95.6545 144.913Z" fill="white"/>
<path d="M112.997 141.718C112.484 141.857 111.94 141.563 111.888 141.035C111.87 140.861 111.862 140.692 111.862 140.527C111.862 139.597 112.137 138.895 112.689 138.42C112.805 138.32 112.928 138.231 113.058 138.152C113.931 137.624 114.85 136.975 114.591 135.989V135.989C114.37 135.15 114.549 134.113 115.287 133.657C115.748 133.372 116.184 133.138 116.595 132.953C117.375 132.592 118.192 132.412 119.048 132.412C119.903 132.412 120.493 132.573 120.816 132.896C121.158 133.2 121.329 133.674 121.329 134.32C121.329 134.721 121.278 135.261 121.175 135.941C121.072 136.625 121.635 137.231 122.311 137.082V137.082C122.828 136.967 123.371 137.25 123.415 137.778C123.432 137.969 123.44 138.173 123.44 138.392C123.44 139.018 123.192 139.607 122.698 140.157C122.223 140.689 121.519 140.955 120.588 140.955V140.955C120.338 140.955 120.121 141.129 120.069 141.373C119.445 144.265 119.134 146.508 119.134 148.102V148.102C119.134 150.133 118.722 152.97 116.691 152.999C116.669 153 116.646 153 116.624 153C115.426 153 114.561 152.649 114.029 151.946C113.516 151.225 113.259 150.114 113.259 148.615C113.259 147.807 113.52 145.836 114.043 142.703C114.146 142.087 113.6 141.555 112.997 141.718V141.718Z" fill="white"/>
</svg>
